<mxfile host="app.diagrams.net" agent="Mozilla/5.0 (Windows NT 10.0; Win64; x64) AppleWebKit/537.36 (KHTML, like Gecko) Chrome/140.0.0.0 Safari/537.36" version="28.2.3">
  <diagram name="PÃ¡gina-1" id="EXcPyIyDJtiwh6fX5pv4">
    <mxGraphModel dx="2430" dy="1980" grid="1" gridSize="10" guides="1" tooltips="1" connect="1" arrows="1" fold="1" page="1" pageScale="1" pageWidth="827" pageHeight="1169" math="0" shadow="0">
      <root>
        <mxCell id="0" />
        <mxCell id="1" parent="0" />
        <mxCell id="t7cY3jsVJKwXglwMmpV_-3" style="edgeStyle=orthogonalEdgeStyle;rounded=0;orthogonalLoop=1;jettySize=auto;html=1;exitX=0.392;exitY=0;exitDx=0;exitDy=0;exitPerimeter=0;" edge="1" parent="1" source="t7cY3jsVJKwXglwMmpV_-1">
          <mxGeometry relative="1" as="geometry">
            <mxPoint x="-50" y="240" as="sourcePoint" />
            <mxPoint x="190" y="50" as="targetPoint" />
            <Array as="points">
              <mxPoint x="-50" y="250" />
              <mxPoint x="-50" y="50" />
            </Array>
          </mxGeometry>
        </mxCell>
        <mxCell id="t7cY3jsVJKwXglwMmpV_-9" style="edgeStyle=orthogonalEdgeStyle;rounded=0;orthogonalLoop=1;jettySize=auto;html=1;entryX=0;entryY=0.5;entryDx=0;entryDy=0;" edge="1" parent="1" source="t7cY3jsVJKwXglwMmpV_-1" target="t7cY3jsVJKwXglwMmpV_-4">
          <mxGeometry relative="1" as="geometry">
            <Array as="points">
              <mxPoint x="-40" y="170" />
            </Array>
          </mxGeometry>
        </mxCell>
        <mxCell id="t7cY3jsVJKwXglwMmpV_-10" style="edgeStyle=orthogonalEdgeStyle;rounded=0;orthogonalLoop=1;jettySize=auto;html=1;" edge="1" parent="1" source="t7cY3jsVJKwXglwMmpV_-1" target="t7cY3jsVJKwXglwMmpV_-5">
          <mxGeometry relative="1" as="geometry" />
        </mxCell>
        <mxCell id="t7cY3jsVJKwXglwMmpV_-11" style="edgeStyle=orthogonalEdgeStyle;rounded=0;orthogonalLoop=1;jettySize=auto;html=1;entryX=0;entryY=0.625;entryDx=0;entryDy=0;entryPerimeter=0;" edge="1" parent="1" source="t7cY3jsVJKwXglwMmpV_-1" target="t7cY3jsVJKwXglwMmpV_-7">
          <mxGeometry relative="1" as="geometry">
            <mxPoint x="-40" y="460" as="targetPoint" />
            <Array as="points">
              <mxPoint x="-40" y="390" />
            </Array>
          </mxGeometry>
        </mxCell>
        <mxCell id="t7cY3jsVJKwXglwMmpV_-12" style="edgeStyle=orthogonalEdgeStyle;rounded=0;orthogonalLoop=1;jettySize=auto;html=1;entryX=0.105;entryY=0.755;entryDx=0;entryDy=0;entryPerimeter=0;" edge="1" parent="1" source="t7cY3jsVJKwXglwMmpV_-1" target="t7cY3jsVJKwXglwMmpV_-6">
          <mxGeometry relative="1" as="geometry">
            <mxPoint x="-40" y="556.4000244140625" as="targetPoint" />
            <Array as="points">
              <mxPoint x="-50" y="500" />
            </Array>
          </mxGeometry>
        </mxCell>
        <mxCell id="t7cY3jsVJKwXglwMmpV_-13" style="edgeStyle=orthogonalEdgeStyle;rounded=0;orthogonalLoop=1;jettySize=auto;html=1;entryX=-0.008;entryY=0.613;entryDx=0;entryDy=0;entryPerimeter=0;" edge="1" parent="1" source="t7cY3jsVJKwXglwMmpV_-1" target="t7cY3jsVJKwXglwMmpV_-8">
          <mxGeometry relative="1" as="geometry">
            <mxPoint x="-40" y="610" as="targetPoint" />
            <Array as="points">
              <mxPoint x="-60" y="594" />
            </Array>
          </mxGeometry>
        </mxCell>
        <mxCell id="t7cY3jsVJKwXglwMmpV_-1" value="Usuario" style="rounded=1;whiteSpace=wrap;html=1;fillColor=#1ba1e2;fontColor=#ffffff;strokeColor=#006EAF;" vertex="1" parent="1">
          <mxGeometry x="-100" y="250" width="120" height="60" as="geometry" />
        </mxCell>
        <mxCell id="t7cY3jsVJKwXglwMmpV_-21" style="edgeStyle=orthogonalEdgeStyle;rounded=0;orthogonalLoop=1;jettySize=auto;html=1;" edge="1" parent="1" source="t7cY3jsVJKwXglwMmpV_-2" target="t7cY3jsVJKwXglwMmpV_-15">
          <mxGeometry relative="1" as="geometry" />
        </mxCell>
        <mxCell id="t7cY3jsVJKwXglwMmpV_-2" value="Subir reciclaje con foto" style="ellipse;whiteSpace=wrap;html=1;fillColor=#008a00;fontColor=#ffffff;strokeColor=#005700;" vertex="1" parent="1">
          <mxGeometry x="180" y="20" width="120" height="80" as="geometry" />
        </mxCell>
        <mxCell id="t7cY3jsVJKwXglwMmpV_-4" value="Registrarse con correo institucional" style="ellipse;whiteSpace=wrap;html=1;fillColor=#008a00;fontColor=#ffffff;strokeColor=#005700;" vertex="1" parent="1">
          <mxGeometry x="180" y="130" width="120" height="80" as="geometry" />
        </mxCell>
        <mxCell id="t7cY3jsVJKwXglwMmpV_-5" value="Iniciar sesion" style="ellipse;whiteSpace=wrap;html=1;fillColor=#008a00;fontColor=#ffffff;strokeColor=#005700;" vertex="1" parent="1">
          <mxGeometry x="170" y="240" width="120" height="80" as="geometry" />
        </mxCell>
        <mxCell id="t7cY3jsVJKwXglwMmpV_-6" value="Consultar Ranking" style="ellipse;whiteSpace=wrap;html=1;fillColor=#008a00;fontColor=#ffffff;strokeColor=#005700;" vertex="1" parent="1">
          <mxGeometry x="180" y="440" width="120" height="80" as="geometry" />
        </mxCell>
        <mxCell id="t7cY3jsVJKwXglwMmpV_-7" value="Consultar historial de reciclaje" style="ellipse;whiteSpace=wrap;html=1;fillColor=#008a00;fontColor=#ffffff;strokeColor=#005700;" vertex="1" parent="1">
          <mxGeometry x="180" y="340" width="120" height="80" as="geometry" />
        </mxCell>
        <mxCell id="t7cY3jsVJKwXglwMmpV_-8" value="Canjear puntos por premios" style="ellipse;whiteSpace=wrap;html=1;fillColor=#008a00;fontColor=#ffffff;strokeColor=#005700;" vertex="1" parent="1">
          <mxGeometry x="180" y="545" width="120" height="80" as="geometry" />
        </mxCell>
        <mxCell id="t7cY3jsVJKwXglwMmpV_-18" style="edgeStyle=orthogonalEdgeStyle;rounded=0;orthogonalLoop=1;jettySize=auto;html=1;entryX=0.5;entryY=0;entryDx=0;entryDy=0;" edge="1" parent="1" source="t7cY3jsVJKwXglwMmpV_-14" target="t7cY3jsVJKwXglwMmpV_-15">
          <mxGeometry relative="1" as="geometry" />
        </mxCell>
        <mxCell id="t7cY3jsVJKwXglwMmpV_-19" style="edgeStyle=orthogonalEdgeStyle;rounded=0;orthogonalLoop=1;jettySize=auto;html=1;entryX=0.5;entryY=0;entryDx=0;entryDy=0;" edge="1" parent="1" source="t7cY3jsVJKwXglwMmpV_-14" target="t7cY3jsVJKwXglwMmpV_-16">
          <mxGeometry relative="1" as="geometry" />
        </mxCell>
        <mxCell id="t7cY3jsVJKwXglwMmpV_-20" style="edgeStyle=orthogonalEdgeStyle;rounded=0;orthogonalLoop=1;jettySize=auto;html=1;entryX=0.5;entryY=0;entryDx=0;entryDy=0;" edge="1" parent="1" source="t7cY3jsVJKwXglwMmpV_-14" target="t7cY3jsVJKwXglwMmpV_-17">
          <mxGeometry relative="1" as="geometry" />
        </mxCell>
        <mxCell id="t7cY3jsVJKwXglwMmpV_-14" value="Sistema de Validacion" style="rounded=1;whiteSpace=wrap;html=1;fillColor=#1ba1e2;fontColor=#ffffff;strokeColor=#006EAF;" vertex="1" parent="1">
          <mxGeometry x="580" y="-80" width="120" height="60" as="geometry" />
        </mxCell>
        <mxCell id="t7cY3jsVJKwXglwMmpV_-15" value="Validar reciclaje automatico" style="ellipse;whiteSpace=wrap;html=1;fillColor=#e51400;fontColor=#ffffff;strokeColor=#B20000;" vertex="1" parent="1">
          <mxGeometry x="414" y="60" width="120" height="80" as="geometry" />
        </mxCell>
        <mxCell id="t7cY3jsVJKwXglwMmpV_-16" value="Generar marca de agua en foto" style="ellipse;whiteSpace=wrap;html=1;fillColor=#e51400;fontColor=#ffffff;strokeColor=#B20000;" vertex="1" parent="1">
          <mxGeometry x="580" y="60" width="120" height="80" as="geometry" />
        </mxCell>
        <mxCell id="t7cY3jsVJKwXglwMmpV_-17" value="Asignar puntaje segun material y cantidad" style="ellipse;whiteSpace=wrap;html=1;fillColor=#e51400;fontColor=#ffffff;strokeColor=#B20000;" vertex="1" parent="1">
          <mxGeometry x="770" y="60" width="120" height="80" as="geometry" />
        </mxCell>
        <mxCell id="t7cY3jsVJKwXglwMmpV_-29" style="edgeStyle=orthogonalEdgeStyle;rounded=0;orthogonalLoop=1;jettySize=auto;html=1;entryX=1;entryY=0.5;entryDx=0;entryDy=0;" edge="1" parent="1" source="t7cY3jsVJKwXglwMmpV_-22" target="t7cY3jsVJKwXglwMmpV_-23">
          <mxGeometry relative="1" as="geometry">
            <Array as="points">
              <mxPoint x="1360" y="60" />
            </Array>
          </mxGeometry>
        </mxCell>
        <mxCell id="t7cY3jsVJKwXglwMmpV_-30" style="edgeStyle=orthogonalEdgeStyle;rounded=0;orthogonalLoop=1;jettySize=auto;html=1;entryX=1;entryY=0.5;entryDx=0;entryDy=0;" edge="1" parent="1" source="t7cY3jsVJKwXglwMmpV_-22" target="t7cY3jsVJKwXglwMmpV_-24">
          <mxGeometry relative="1" as="geometry">
            <Array as="points">
              <mxPoint x="1340" y="170" />
            </Array>
          </mxGeometry>
        </mxCell>
        <mxCell id="t7cY3jsVJKwXglwMmpV_-31" style="edgeStyle=orthogonalEdgeStyle;rounded=0;orthogonalLoop=1;jettySize=auto;html=1;entryX=1;entryY=0.5;entryDx=0;entryDy=0;" edge="1" parent="1" source="t7cY3jsVJKwXglwMmpV_-22" target="t7cY3jsVJKwXglwMmpV_-25">
          <mxGeometry relative="1" as="geometry" />
        </mxCell>
        <mxCell id="t7cY3jsVJKwXglwMmpV_-32" style="edgeStyle=orthogonalEdgeStyle;rounded=0;orthogonalLoop=1;jettySize=auto;html=1;entryX=1;entryY=0.5;entryDx=0;entryDy=0;" edge="1" parent="1" source="t7cY3jsVJKwXglwMmpV_-22" target="t7cY3jsVJKwXglwMmpV_-26">
          <mxGeometry relative="1" as="geometry">
            <Array as="points">
              <mxPoint x="1320" y="380" />
            </Array>
          </mxGeometry>
        </mxCell>
        <mxCell id="t7cY3jsVJKwXglwMmpV_-33" style="edgeStyle=orthogonalEdgeStyle;rounded=0;orthogonalLoop=1;jettySize=auto;html=1;entryX=1;entryY=0.5;entryDx=0;entryDy=0;" edge="1" parent="1" source="t7cY3jsVJKwXglwMmpV_-22" target="t7cY3jsVJKwXglwMmpV_-27">
          <mxGeometry relative="1" as="geometry">
            <Array as="points">
              <mxPoint x="1340" y="480" />
            </Array>
          </mxGeometry>
        </mxCell>
        <mxCell id="t7cY3jsVJKwXglwMmpV_-22" value="Administrador" style="rounded=1;whiteSpace=wrap;html=1;fillColor=#1ba1e2;fontColor=#ffffff;strokeColor=#006EAF;" vertex="1" parent="1">
          <mxGeometry x="1290" y="250" width="120" height="60" as="geometry" />
        </mxCell>
        <mxCell id="t7cY3jsVJKwXglwMmpV_-23" value="Validar reciclaje manual" style="ellipse;whiteSpace=wrap;html=1;fillColor=#b1ddf0;strokeColor=#10739e;" vertex="1" parent="1">
          <mxGeometry x="1030" y="20" width="120" height="80" as="geometry" />
        </mxCell>
        <mxCell id="t7cY3jsVJKwXglwMmpV_-24" value="Generar reportes" style="ellipse;whiteSpace=wrap;html=1;fillColor=#b1ddf0;strokeColor=#10739e;" vertex="1" parent="1">
          <mxGeometry x="1030" y="130" width="120" height="80" as="geometry" />
        </mxCell>
        <mxCell id="t7cY3jsVJKwXglwMmpV_-25" value="Gestionar centros de reciclaje" style="ellipse;whiteSpace=wrap;html=1;fillColor=#b1ddf0;strokeColor=#10739e;" vertex="1" parent="1">
          <mxGeometry x="1030" y="240" width="120" height="80" as="geometry" />
        </mxCell>
        <mxCell id="t7cY3jsVJKwXglwMmpV_-26" value="Gestionar catalogo de materiales" style="ellipse;whiteSpace=wrap;html=1;fillColor=#b1ddf0;strokeColor=#10739e;" vertex="1" parent="1">
          <mxGeometry x="1030" y="340" width="120" height="80" as="geometry" />
        </mxCell>
        <mxCell id="t7cY3jsVJKwXglwMmpV_-27" value="Revisar evidencia con marca de agua" style="ellipse;whiteSpace=wrap;html=1;fillColor=#b1ddf0;strokeColor=#10739e;" vertex="1" parent="1">
          <mxGeometry x="1030" y="440" width="120" height="80" as="geometry" />
        </mxCell>
        <mxCell id="t7cY3jsVJKwXglwMmpV_-35" style="edgeStyle=orthogonalEdgeStyle;rounded=0;orthogonalLoop=1;jettySize=auto;html=1;entryX=0.083;entryY=0.5;entryDx=0;entryDy=0;entryPerimeter=0;exitX=0.968;exitY=0.696;exitDx=0;exitDy=0;exitPerimeter=0;" edge="1" parent="1" source="t7cY3jsVJKwXglwMmpV_-2" target="t7cY3jsVJKwXglwMmpV_-23">
          <mxGeometry relative="1" as="geometry">
            <Array as="points">
              <mxPoint x="296" y="80" />
              <mxPoint x="340" y="80" />
              <mxPoint x="340" y="190" />
              <mxPoint x="960" y="190" />
              <mxPoint x="960" y="60" />
            </Array>
          </mxGeometry>
        </mxCell>
      </root>
    </mxGraphModel>
  </diagram>
</mxfile>
